<?xml version="1.0" encoding="UTF-8"?>
<!DOCTYPE svg PUBLIC "-//W3C//DTD SVG 1.1//EN" "http://www.w3.org/Graphics/SVG/1.1/DTD/svg11.dtd">
<svg xmlns="http://www.w3.org/2000/svg" version="1.1" width="69px" height="70px" style="shape-rendering:geometricPrecision; text-rendering:geometricPrecision; image-rendering:optimizeQuality; fill-rule:evenodd; clip-rule:evenodd" xmlns:xlink="http://www.w3.org/1999/xlink">
<g><path style="opacity:0.961" fill="#fe5205" d="M -0.5,-0.5 C 22.5,-0.5 45.5,-0.5 68.5,-0.5C 68.5,22.8333 68.5,46.1667 68.5,69.5C 45.5,69.5 22.5,69.5 -0.5,69.5C -0.5,46.1667 -0.5,22.8333 -0.5,-0.5 Z"/></g>
<g><path style="opacity:1" fill="#ffd0b9" d="M 54.5,35.5 C 48.185,40.1421 41.8517,44.8088 35.5,49.5C 30.0728,46.2414 25.0728,42.4081 20.5,38C 21.5,37.3333 22.5,37.3333 23.5,38C 27.0133,41.5839 31.0133,44.4172 35.5,46.5C 38.7955,45.184 41.7955,43.3506 44.5,41C 49.0074,37.3237 53.3407,33.4904 57.5,29.5C 50.0611,22.2278 41.8945,15.8944 33,10.5C 25.3691,15.9604 17.8691,21.627 10.5,27.5C 11.3128,28.8139 12.3128,29.9805 13.5,31C 12.9056,31.4643 12.2389,31.631 11.5,31.5C 10.0384,30.5423 8.70507,29.3756 7.5,28C 15.7221,20.7733 24.2221,13.94 33,7.5C 41.989,14.486 50.989,21.486 60,28.5C 60.6667,29.1667 60.6667,29.8333 60,30.5C 58.1881,32.3003 56.3548,33.9669 54.5,35.5 Z"/></g>
<g><path style="opacity:0.992" fill="#fe621f" d="M 54.5,35.5 C 55.0312,37.6237 56.3645,39.1237 58.5,40C 51.1519,46.3308 43.4852,52.1642 35.5,57.5C 27.3848,51.8937 19.3848,46.0604 11.5,40C 10.5494,39.2825 10.3828,38.4491 11,37.5C 18.231,31.4689 25.731,25.8022 33.5,20.5C 38.3121,24.1444 42.9788,27.9777 47.5,32C 47,32.5 46.5,33 46,33.5C 41.9776,29.9767 37.811,26.6434 33.5,23.5C 26.9849,28.2591 20.6515,33.2591 14.5,38.5C 20.8905,44.3893 27.7238,49.7226 35,54.5C 41.9044,50.4308 48.0711,45.4308 53.5,39.5C 53.1667,39.1667 52.8333,38.8333 52.5,38.5C 46.9618,43.5212 41.1285,48.1879 35,52.5C 29.3442,48.1808 23.6776,43.8475 18,39.5C 19.238,36.7703 21.4047,34.7703 24.5,33.5C 24.5,33.8333 24.5,34.1667 24.5,34.5C 24.8588,36.371 25.8588,37.871 27.5,39C 29.7481,40.9137 32.2481,42.4137 35,43.5C 41.6052,39.3924 47.7719,34.7257 53.5,29.5C 52.3523,27.8513 51.019,26.3513 49.5,25C 44.245,20.7913 38.745,16.958 33,13.5C 26.3537,17.9067 20.187,22.9067 14.5,28.5C 15.0016,29.521 15.6683,29.6877 16.5,29C 21.7348,23.9292 27.4014,19.4292 33.5,15.5C 39.2725,19.4718 44.7725,23.8051 50,28.5C 50.5628,29.7248 50.2295,30.7248 49,31.5C 44.2779,26.4646 38.9445,22.1313 33,18.5C 26.5468,23.3026 20.0468,27.9693 13.5,32.5C 12.5084,32.6716 11.8417,32.3382 11.5,31.5C 12.2389,31.631 12.9056,31.4643 13.5,31C 12.3128,29.9805 11.3128,28.8139 10.5,27.5C 17.8691,21.627 25.3691,15.9604 33,10.5C 41.8945,15.8944 50.0611,22.2278 57.5,29.5C 53.3407,33.4904 49.0074,37.3237 44.5,41C 41.7955,43.3506 38.7955,45.184 35.5,46.5C 31.0133,44.4172 27.0133,41.5839 23.5,38C 22.5,37.3333 21.5,37.3333 20.5,38C 25.0728,42.4081 30.0728,46.2414 35.5,49.5C 41.8517,44.8088 48.185,40.1421 54.5,35.5 Z"/></g>
<g><path style="opacity:1" fill="#ffcdb7" d="M 24.5,34.5 C 27.8566,37.0188 31.3566,39.3521 35,41.5C 38.6016,39.7282 41.7682,37.3949 44.5,34.5C 40.9702,31.5759 37.3036,28.9092 33.5,26.5C 30.1965,28.4733 27.1965,30.8067 24.5,33.5C 21.4047,34.7703 19.238,36.7703 18,39.5C 23.6776,43.8475 29.3442,48.1808 35,52.5C 41.1285,48.1879 46.9618,43.5212 52.5,38.5C 52.8333,38.8333 53.1667,39.1667 53.5,39.5C 48.0711,45.4308 41.9044,50.4308 35,54.5C 27.7238,49.7226 20.8905,44.3893 14.5,38.5C 20.6515,33.2591 26.9849,28.2591 33.5,23.5C 37.811,26.6434 41.9776,29.9767 46,33.5C 46.5,33 47,32.5 47.5,32C 42.9788,27.9777 38.3121,24.1444 33.5,20.5C 25.731,25.8022 18.231,31.4689 11,37.5C 10.3828,38.4491 10.5494,39.2825 11.5,40C 19.3848,46.0604 27.3848,51.8937 35.5,57.5C 43.4852,52.1642 51.1519,46.3308 58.5,40C 56.3645,39.1237 55.0312,37.6237 54.5,35.5C 56.8863,36.3733 58.8863,37.8733 60.5,40C 58.5,42 56.5,44 54.5,46C 48.4783,51.0043 42.145,55.5043 35.5,59.5C 25.6262,53.3027 16.2929,46.3027 7.5,38.5C 9.5332,36.4934 11.5332,34.4934 13.5,32.5C 20.0468,27.9693 26.5468,23.3026 33,18.5C 38.9445,22.1313 44.2779,26.4646 49,31.5C 50.2295,30.7248 50.5628,29.7248 50,28.5C 44.7725,23.8051 39.2725,19.4718 33.5,15.5C 27.4014,19.4292 21.7348,23.9292 16.5,29C 15.6683,29.6877 15.0016,29.521 14.5,28.5C 20.187,22.9067 26.3537,17.9067 33,13.5C 38.745,16.958 44.245,20.7913 49.5,25C 51.019,26.3513 52.3523,27.8513 53.5,29.5C 47.7719,34.7257 41.6052,39.3924 35,43.5C 32.2481,42.4137 29.7481,40.9137 27.5,39C 25.8588,37.871 24.8588,36.371 24.5,34.5 Z"/></g>
<g><path style="opacity:0.992" fill="#fe570f" d="M 24.5,34.5 C 24.5,34.1667 24.5,33.8333 24.5,33.5C 27.1965,30.8067 30.1965,28.4733 33.5,26.5C 37.3036,28.9092 40.9702,31.5759 44.5,34.5C 41.7682,37.3949 38.6016,39.7282 35,41.5C 31.3566,39.3521 27.8566,37.0188 24.5,34.5 Z"/></g>
</svg>
